<svg version="1.1" id="OBJECTS" xmlns="http://www.w3.org/2000/svg" x="0" y="0" viewBox="0 0 500 500"
  style="enable-background:new 0 0 500 500" xml:space="preserve">
  <style>
    .st6 {
      fill: #393762
    }

    .st8 {
      fill: #fff
    }

    .st9 {
      fill: #1dbfff
    }

    .st10 {
      opacity: .8
    }

    .st12 {
      fill: #1ae5ff
    }

    .st16 {
      fill: #f9fbfc
    }

    .st19 {
      fill: #cfe3ff
    }

    .st20 {
      fill: #b1cae8
    }

    .st25 {
      fill: #edba8f
    }

    .st26 {
      fill: #0061c1
    }

    .st27 {
      fill: #113c7a
    }

    .st29 {
      fill: #ffb699
    }

    .st30 {
      fill: #5167b0
    }

    .st31 {
      fill: #a969e0
    }

    .st35 {
      fill: #ff9d6f
    }
  </style>
  <linearGradient id="SVGID_1_" gradientUnits="userSpaceOnUse" x1=".923" y1="275.362" x2="499.239" y2="275.362">
    <stop offset="0" style="stop-color:#0ff" />
    <stop offset="1" style="stop-color:#604bc9" />
  </linearGradient>
  <path
    d="M383.7 127.1C357 47.8 237.1 64.9 208.9 105.2c-28.2 36.3-28.2 84.6-74.5 101.5-68.5 29.5-190.8 74.2-102.7 182.6 103.1 126.9 247.8 106.8 294.2 20.1 46.3-86.6 90.7-98 143.1-140.7s32.2-75.4-24.2-81.2c-46.4-4.7-47.7-20.6-61.1-60.4z"
    style="opacity:.17;fill:url(#SVGID_1_)" />
  <linearGradient id="SVGID_2_" gradientUnits="userSpaceOnUse" x1="38.413" y1="126.303" x2="375.907" y2="279.801">
    <stop offset="0" style="stop-color:#0ff" />
    <stop offset="1" style="stop-color:#604bc9" />
  </linearGradient>
  <path
    d="M255.8 311.8c-56-38.3-112.7 0-207.9-4.7-17-.8-30.7-5.6-41.6-13 19-43.7 84.5-68.6 128.1-87.4 46.3-16.9 46.3-65.3 74.5-101.5 21.9-31.3 98.9-48.6 144.8-17.8-.2.4-.3.8-.5 1.3-30 70-6.7 67.1 19.1 128.8 25.9 61.8-60.6 132.6-116.5 94.3z"
    style="opacity:.17;fill:url(#SVGID_2_)" />
  <linearGradient id="SVGID_3_" gradientUnits="userSpaceOnUse" x1="105.497" y1="240.488" x2="228.723" y2="218.101"
    gradientTransform="rotate(19.462 554.3 65.294)">
    <stop offset="0" style="stop-color:#0ff" />
    <stop offset=".232" style="stop-color:#1dc9ef" />
    <stop offset=".489" style="stop-color:#3a93df" />
    <stop offset=".713" style="stop-color:#4e6cd3" />
    <stop offset=".89" style="stop-color:#5b54cc" />
    <stop offset="1" style="stop-color:#604bc9" />
  </linearGradient>
  <path d="M116.1 79s-14.5 43 15.8 46c30.3 3.1 44.3-42.6 20.1-62.2C127.7 43.3 116.1 79 116.1 79z"
    style="opacity:.17;fill:url(#SVGID_3_)" />
  <linearGradient id="SVGID_4_" gradientUnits="userSpaceOnUse" x1="383.286" y1="495.48" x2="364.1" y2="467.533">
    <stop offset="0" style="stop-color:#0ff" />
    <stop offset="1" style="stop-color:#604bc9" />
  </linearGradient>
  <path
    d="M378 464.9c15.4 4.7 14.2 27.9-1.5 31.1-4.9 1-10.5-.4-16-5.9-12.1-12.2-1.7-22.6 9.8-25.4 2.4-.6 5-.6 7.5.1 0 .1.1.1.2.1z"
    style="opacity:.17;fill:url(#SVGID_4_)" />
  <linearGradient id="SVGID_5_" gradientUnits="userSpaceOnUse" x1="166.456" y1="307.888" x2="135.937" y2="275.328"
    gradientTransform="rotate(19.462 554.3 65.294)">
    <stop offset="0" style="stop-color:#0ff" />
    <stop offset="1" style="stop-color:#604bc9" />
  </linearGradient>
  <path d="M86 133.6c1.9-5.3 7.7-8 13-6.1 5.3 1.9 8.1 7.7 6.2 13-1.9 5.3-7.7 8-13 6.1-5.3-1.9-8.1-7.7-6.2-13z"
    style="opacity:.17;fill:url(#SVGID_5_)" />
  <linearGradient id="SVGID_6_" gradientUnits="userSpaceOnUse" x1="409.631" y1="435.215" x2="379.112" y2="402.655">
    <stop offset="0" style="stop-color:#0ff" />
    <stop offset="1" style="stop-color:#604bc9" />
  </linearGradient>
  <path d="M378.7 413c0-5.6 4.5-10.1 10.2-10.1 5.6 0 10.2 4.6 10.2 10.2s-4.5 10.1-10.2 10.1c-5.6 0-10.2-4.6-10.2-10.2z"
    style="opacity:.17;fill:url(#SVGID_6_)" />
  <g>
    <path class="st6"
      d="M102.2 227c-3.2 9.7-3 20.6 1.3 29.9 4.3 9.3 12.7 16.7 22.7 19 5.8 1.4 12.1 1 17.5-1.6 5.4-2.5 9.8-7.3 11.4-13 1.6-5.7.3-12.3-3.8-16.7-3.1-3.2-8.5-5-11.2-8.5-4.6-6.2-1.6-15.6-6.2-21.8-4.2-5.7-12.8-6.7-19.1-3.5-6.3 3.1-10.4 9.5-12.6 16.2z" />
    <path class="st8"
      d="M228.5 338.9c-3.2 1.8-3.2 4.8 0 6.7L334.3 407c3.2 1.8 8.3 1.8 11.5 0l24.8-11.6c3.2-1.8 3.2-4.8 0-6.7l-105.8-61.5c-3.2-1.8-8.3-1.8-11.5 0l-24.8 11.7z"
      style="opacity:.5" />
    <path class="st9"
      d="M199.3 81.9v2.6c0 1.6 1.7 2.5 3 1.7l12.5-7.2c.6-.4 1-1 1-1.8v-2.6c0-1.6-1.7-2.5-3-1.7l-12.5 7.2c-.6.4-1 1.1-1 1.8zM159.9 117.8v2.6c0 1.6 1.7 2.5 3 1.7l51.9-30c.6-.4 1-1 1-1.8v-2.6c0-1.6-1.7-2.5-3-1.7l-51.9 30c-.6.4-1 1-1 1.8z" />
    <g class="st10">
      <path class="st8"
        d="M181.4 131.7v2.6c0 1.6 1.7 2.5 3 1.7l30.5-17.6c.6-.4 1-1 1-1.8V114c0-1.6-1.7-2.5-3-1.7L182.4 130c-.6.3-1 1-1 1.7z" />
    </g>
    <path class="st12"
      d="M168 126.3v2.6c0 1.6 1.7 2.5 3 1.7l43.9-25.3c.6-.4 1-1 1-1.8v-2.6c0-1.6-1.7-2.5-3-1.7L169 124.5c-.6.4-1 1.1-1 1.8z"
      style="opacity:.53" />
    <path class="st9"
      d="M439.5 121.9c.6.3 1 1.1 1 1.8l-.1 18c0 .7-.5.9-1 .6l-22.8-13.1c-.6-.3-1-1.1-1-1.8l.1-18c0-.7.5-.9 1-.6l22.8 13.1z" />
    <path class="st8"
      d="M447.8 153.9c.6.3 1 1.1 1 1.8l-.1 18c0 .7-.5.9-1 .6L425 161.1c-.6-.3-1-1.1-1-1.8l.1-18c0-.7.5-.9 1-.6l22.7 13.2z"
      style="opacity:.67" />
    <g style="opacity:.37">
      <path
        d="M216.2 170.9c.4.2.7.7.7 1.2v11.6c0 .4-.3.6-.7.4l-14.7-8.5c-.4-.2-.7-.7-.7-1.2v-11.6c0-.4.3-.6.7-.4l14.7 8.5z"
        style="fill:#8ed2ff" />
    </g>
    <path class="st8"
      d="M221.6 191.6c.4.2.7.7.7 1.2v11.6c0 .4-.3.6-.7.4l-14.7-8.5c-.4-.2-.7-.7-.7-1.2v-11.6c0-.4.3-.6.7-.4l14.7 8.5z" />
    <path class="st16"
      d="M367 68.8c13.5 7.8 24.4 26.6 24.3 42.1l-.7 250c0 15.5-11 21.7-24.5 14L262 314.7c-13.5-7.8-24.4-26.6-24.3-42.1l.7-250c0-15.5 11-21.7 24.5-14L367 68.8z" />
    <path
      d="M328.6 70.7c1.6.9 3 3.2 2.9 5.1 0 1.9-1.3 2.6-3 1.7L301.7 62c-1.6-.9-3-3.2-2.9-5.1 0-1.9 1.3-2.6 3-1.7l26.8 15.5z"
      style="fill:#0aa5e2" />
    <linearGradient id="SVGID_7_" gradientUnits="userSpaceOnUse" x1="314.45" y1="369.077" x2="314.45" y2="287.112">
      <stop offset="0" style="stop-color:#0ff" />
      <stop offset="1" style="stop-color:#604bc9" />
    </linearGradient>
    <path d="M314.5 308.8c4.4 2.5 8 8.7 7.9 13.8 0 5.1-3.6 7.1-8 4.6s-8-8.7-7.9-13.8c0-5.1 3.6-7.1 8-4.6z"
      style="fill:url(#SVGID_7_)" />
    <path class="st16"
      d="M380.6 122.7c1.4.8 2.4 2.7 2.4 4.2l-.6 208.9c0 1.6-1.1 2.2-2.5 1.4L249 261.5c-1.4-.8-2.4-2.7-2.4-4.2l.6-208.9c0-1.6 1.1-2.2 2.5-1.4l130.9 75.7zM397.1 195.2c-.9 0-1.5-.7-1.5-1.5v-46.4c0-.9.7-1.5 1.5-1.5.9 0 1.5.7 1.5 1.5v46.4c0 .8-.7 1.5-1.5 1.5zM397.1 253c-.9 0-1.5-.7-1.5-1.5V205c0-.9.7-1.5 1.5-1.5.9 0 1.5.7 1.5 1.5v46.4c0 .9-.7 1.6-1.5 1.6zM397.1 324c-.9 0-1.5-.7-1.5-1.5v-24.1c0-.9.7-1.5 1.5-1.5.9 0 1.5.7 1.5 1.5v24.1c0 .8-.7 1.5-1.5 1.5z" />
    <path class="st8"
      d="M313.6 137.3c6.7 3.9 12.1 13.2 12.2 21v.2c-.3.1-5.6 2.2-12.4-1.5-.1 0-.2-.1-.2-.1-5.3-3.1-9.7-9.2-11.2-11.5-.4-.6-.6-.9-.6-1-.1-7.8 5.4-11 12.2-7.1z" />
    <path class="st19"
      d="M368.8 204.7c1.6.9 2.8 3.1 2.8 4.8v11.8c0 1.8-1.3 2.5-2.8 1.6L261 160.7c-1.6-.9-2.8-3.1-2.8-4.8v-11.8c0-1.8 1.3-2.5 2.8-1.6l107.8 62.2z" />
    <path class="st20"
      d="M333.2 191.6c.4.2.7.8.7 1.2v2.9c0 .4-.3.6-.7.4l-59.1-34c-.4-.2-.7-.8-.7-1.2V158c0-.4.3-.6.7-.4l59.1 34z" />
    <linearGradient id="SVGID_8_" gradientUnits="userSpaceOnUse" x1="295.991" y1="97.294" x2="330.821" y2="168.501">
      <stop offset="0" style="stop-color:#0ff" />
      <stop offset="1" style="stop-color:#604bc9" />
    </linearGradient>
    <path
      d="M332 134.6c.6 2.1 1.1 4.2 1.3 6.3.1 1.2.2 2.5.2 3.7v1.3c0 .3 0 .7-.1 1v.2c0 .3-.1.6-.1.9-.1.4-.1.7-.2 1-.1.4-.1.7-.2 1v.1c-.1.3-.2.6-.2.8v.1c-.1.3-.2.5-.3.8-.1.3-.2.6-.3.8-.2.3-.3.6-.4.8 0 0 0 .1-.1.1-.1.2-.3.4-.4.6 0 0 0 .1-.1.1-.1.2-.3.4-.4.6-.2.2-.3.4-.5.6 0 0 0 .1-.1.1l-.5.5-.1.1-.5.5s-.1 0-.1.1c-.2.1-.4.3-.5.4-.2.2-.4.3-.6.4 0 0-.1 0-.1.1l-.6.3s-.1 0-.1.1l-.6.3c-.2.1-.3.1-.4.1-.1-7.7-5.5-17.1-12.2-20.9-6.8-3.9-12.3-.8-12.3 7l.6.9c-.2-.2-.3-.4-.5-.7-.3-.4-.5-.7-.7-1.1 0-.1-.1-.1-.1-.2-.2-.3-.4-.7-.6-1 0-.1-.1-.1-.1-.2-.2-.3-.4-.7-.6-1-.2-.4-.4-.7-.6-1.1 0-.1-.1-.1-.1-.2-.2-.3-.4-.7-.6-1.1 0-.1-.1-.1-.1-.2-.2-.3-.3-.7-.5-1-.2-.5-.4-.8-.5-1.2 0-.1-.1-.1-.1-.2-.2-.4-.3-.7-.5-1.1-.2-.5-.3-.8-.5-1.2 0-.1 0-.1-.1-.2-.1-.4-.3-.7-.4-1.1 0-.1 0-.1-.1-.2-.2-.8-.5-1.5-.7-2.3 0-.1 0-.1-.1-.2-.1-.4-.2-.7-.3-1.1v-.2c-.1-.3-.2-.7-.2-1-.1-.5-.2-.9-.2-1.2v-.2c-.1-.4-.1-.7-.2-1.1-.1-.5-.1-.8-.1-1.1v-.2c0-.4 0-.7-.1-1.1v-1.3c0-1.2.1-2.3.2-3.4.3-1.8.7-3.3 1.4-4.7.1-.3.3-.5.4-.8 3.3-5.9 10.2-7.2 18.2-2.6 7.2 4.1 13.4 12.1 17 20.6.2.6.5 1.1.7 1.7.1.8.3 1.6.6 2.4zm-18.1.6c4.1 2.4 7.5.5 7.5-4.3 0-4.7-3.3-10.5-7.4-12.9-4.1-2.4-7.5-.5-7.5 4.3-.1 4.8 3.2 10.5 7.4 12.9"
      style="fill:url(#SVGID_8_)" />
    <path
      d="M332 134.6c.6 2.1 1.1 4.2 1.3 6.3.1 1.2.2 2.5.2 3.7v1.3c0 .3 0 .7-.1 1v.2c0 .3-.1.6-.1.9-.1.4-.1.7-.2 1-.1.4-.1.7-.2 1v.1c-.1.3-.2.6-.2.8v.1c-.1.3-.2.5-.3.8-.1.3-.2.6-.3.8-.2.3-.3.6-.4.8 0 0 0 .1-.1.1-.1.2-.3.4-.4.6 0 0 0 .1-.1.1-.1.2-.3.4-.4.6-.2.2-.3.4-.5.6 0 0 0 .1-.1.1l-.5.5-.1.1-.5.5s-.1 0-.1.1c-.2.1-.4.3-.5.4-.2.2-.4.3-.6.4 0 0-.1 0-.1.1l-.6.3s-.1 0-.1.1l-.6.3c-.2.1-.3.1-.4.1-.1-7.7-5.5-17.1-12.2-20.9-6.8-3.9-12.3-.8-12.3 7l.6.9c-.2-.2-.3-.4-.5-.7-.3-.4-.5-.7-.7-1.1 0-.1-.1-.1-.1-.2-.2-.3-.4-.7-.6-1 0-.1-.1-.1-.1-.2-.2-.3-.4-.7-.6-1-.2-.4-.4-.7-.6-1.1 0-.1-.1-.1-.1-.2-.2-.3-.4-.7-.6-1.1 0-.1-.1-.1-.1-.2-.2-.3-.3-.7-.5-1-.2-.5-.4-.8-.5-1.2 0-.1-.1-.1-.1-.2-.2-.4-.3-.7-.5-1.1-.2-.5-.3-.8-.5-1.2 0-.1 0-.1-.1-.2-.1-.4-.3-.7-.4-1.1 0-.1 0-.1-.1-.2-.2-.8-.5-1.5-.7-2.3 0-.1 0-.1-.1-.2-.1-.4-.2-.7-.3-1.1v-.2c-.1-.3-.2-.7-.2-1-.1-.5-.2-.9-.2-1.2v-.2c-.1-.4-.1-.7-.2-1.1-.1-.5-.1-.8-.1-1.1v-.2c0-.4 0-.7-.1-1.1v-1.3c0-1.2.1-2.3.2-3.4.3-1.8.7-3.3 1.4-4.7.1-.3.3-.5.4-.8 3.3-5.9 10.2-7.2 18.2-2.6 7.2 4.1 13.4 12.1 17 20.6.2.6.5 1.1.7 1.7.1.8.3 1.6.6 2.4zm-18.1.6c4.1 2.4 7.5.5 7.5-4.3 0-4.7-3.3-10.5-7.4-12.9-4.1-2.4-7.5-.5-7.5 4.3-.1 4.8 3.2 10.5 7.4 12.9"
      style="fill:none" />
    <g>
      <path class="st8"
        d="M313.9 118.1c4.1 2.4 7.5 8.2 7.4 12.9 0 4.7-3.4 6.7-7.5 4.3-4.1-2.4-7.5-8.2-7.4-12.9 0-4.8 3.4-6.7 7.5-4.3z" />
    </g>
    <g>
      <path class="st19"
        d="M368.7 230.4c1.6.9 2.8 3.1 2.8 4.8V247c0 1.8-1.3 2.5-2.8 1.6L261 186.4c-1.6-.9-2.8-3.1-2.8-4.8v-11.8c0-1.8 1.3-2.5 2.8-1.6l107.7 62.2z" />
    </g>
    <linearGradient id="SVGID_9_" gradientUnits="userSpaceOnUse" x1="309.188" y1="211.182" x2="309.188" y2="285.55">
      <stop offset="0" style="stop-color:#5155d4" />
      <stop offset="1" style="stop-color:#45f7ff" />
    </linearGradient>
    <path
      d="M326.6 249.4c3.7 2.1 6.6 7.3 6.6 11.5v2.7c0 4.2-3 5.9-6.7 3.8l-34.8-20.1c-3.7-2.1-6.7-7.3-6.6-11.5v-2.7c0-4.2 3-5.9 6.7-3.8l34.8 20.1z"
      style="fill:url(#SVGID_9_)" />
    <linearGradient id="SVGID_10_" gradientUnits="userSpaceOnUse" x1="211.917" y1="412.974" x2="291.091" y2="412.974">
      <stop offset="0" style="stop-color:#5155d4" />
      <stop offset="1" style="stop-color:#45f7ff" />
    </linearGradient>
    <ellipse cx="251.5" cy="413" rx="39.6" ry="23.5" style="opacity:.32;fill:url(#SVGID_10_)" />
    <g>
      <path class="st25"
        d="M291.7 253.1s2.4-1.6 3-2.4c.6-.8 1.4-5.3.6-5.5-.8-.2-1.4 3-1.4 3s-.2-8.3-1.2-9.5c-1-1.2-4.1 4.7-4.3 5.7-.2 1-1 5.1-1 5.1s1.1 3.6 4.3 3.6z" />
      <path class="st26"
        d="M231.5 276.9s-6.2 6.2-1.8 13.7c4.3 7.5 33.9-11 37-13.8 3.2-2.8 23.8-21.3 25-23.6 1.2-2.4-1.4-4.7-4.5-4.3-3.2.4-15.8 13.8-25.6 20.1-.1-.1-23.6 5.2-30.1 7.9z" />
      <path class="st6"
        d="M235.1 407.9s-.5 3.7.2 5.3c.7 1.4 3.4 2.4 5.3 1s5.1-4.7 5.1-4.7 5.4-2.9 5.9-4.4c.5-1.5-1.4-2.9-2.9-2.5-1.5.3-5.9 3.1-8 3.1-2.1-.2-4.9.3-5.6 2.2z" />
      <path class="st26" d="M229.5 328.5s4.7 78.3 5.3 80.6c.6 2.3 6.7 3.6 7.9 0 .7-2.3 2.5-74.8 2.5-74.8l-15.7-5.8z" />
      <path class="st6"
        d="M250.8 412.6c-.3.2-.4.6-.4.9 0 1.1 0 3.5.6 4.4.8 1.2 3.3 2.5 5.9 1.1 2.2-1.2 9-6.2 10.3-7.4.8-.7 1.2-1.5 1.4-2.2.1-.6-.1-1.2-.7-1.4-1-.4-2.6-1-4.1-.5-2.2.8-5.1 3.2-8.1 3-2.3 0-4.1 1.4-4.9 2.1z" />
      <path class="st26"
        d="M261.3 329.4c-.3-3.3-4.2-4.3-7.8-3.2-6.8-.4-17.4-.1-17.8 5.2-.6 7.9 3.1 13.5 6.7 17.3 2.6 2.8 4.4 8.2 5.1 10.8.6 20.8 2 50.1 2.9 52.9 1.4 4.5 8.2 4.3 8.5-.1 1.3-14.9 2.4-82.9 2.4-82.9z" />
      <path class="st27"
        d="M261.3 331.8c-.8 4-12.3 6-19 5-6.7-1.1-13.9-4.4-13.7-12.1 0 0 1.3-18.6.8-21.9-.5-3.3-1.8-9.2-1.8-15.3 0-6.1 3.8-10.6 3.8-10.6s3.8-4.3 15.5-1.9c0 0 9.6 2.1 14 9.2 0 0 3.1 7.8 2 24.1-.9 16.3-1.6 23.5-1.6 23.5z" />
      <path class="st25"
        d="M237.8 266.4s1 5.9 0 8.6c-.2 1.4 5.8 5.9 11 4.7 3.1-.7 2.9-2.2 2.9-2.2s-2.5-4.2-2.2-8.3c.3-4-8.1-3.7-11.7-2.8z" />
      <path class="st25" d="M257.6 254.4c0 7.7-6.3 14-14 14s-14-6.3-14-14 6.3-14 14-14c7.8.1 14 6.3 14 14z" />
      <path class="st25"
        d="M257.6 255.4s.2 14-2.9 16.8c-3.1 2.8-7.7-2.6-15.2-4.4-7.5-1.9 6.1-16.5 6.1-16.5l12 4.1zM288.7 276.1s-1.3-5.5-.9-5.9c.4-.4 2.2 1.9 2.2 1.9s.9-5.6 1.6-6.2c.7-.6 3.7 2.4 4.1 4 .4 1.6-1.8 8.1-2.7 8.3-.8.1-3.9.5-4.3-2.1z" />
      <path class="st26"
        d="M256.9 282.6s-6.2 3-3.5 10.6c2.7 7.7 22.5 10.6 24.8 8.3 2.4-2.4 12.7-14.5 15.7-23.6 0 0-1.2-3.5-5.9-2.1 0 0-11.2 14.2-13 15.7-1.8 1.4-15.1-9.5-18.1-8.9z" />
      <path class="st6"
        d="M231.7 243.8s4.4-5.3 11.9-5.8 7.1 2.1 14 1.7c2.9-.2 3.9 2.3 3.6 6-.2 2.7-3.5 6.4-8.4 6.4h-4.7s3.9 1.7 4.4 5.1c.5 3.4-.2 3.3-.2 3.3s-1.4-1.3-3.4-.4c-1.8.8-1.9 6.1-.2 7l1.7 1s-3.3 6-5 6.3c-1.8.3-7.6-4.1-7.6-4.1s-8.1-5.2-9.1-12.8c-1-7.6 3-13.7 3-13.7z" />
    </g>
    <g>
      <linearGradient id="SVGID_11_" gradientUnits="userSpaceOnUse" x1="87.109" y1="373.998" x2="166.283" y2="373.998">
        <stop offset="0" style="stop-color:#5155d4" />
        <stop offset="1" style="stop-color:#45f7ff" />
      </linearGradient>
      <ellipse cx="126.7" cy="374" rx="39.6" ry="23.5" style="opacity:.32;fill:url(#SVGID_11_)" />
      <path class="st29"
        d="M106.6 309.7s2.7 16.8 4.9 26.2c0 0 .4 15.5.9 20.8.4 5.3 1.8 16.8 1.8 16.8s1.6 1.3 3.3.4c0 0 2.2-33 2.7-38.3.4-5.3 2-29.3 2-29.3s-5.1-4.6-15.6 3.4zM123.3 303s2.7 16.8 4.9 26.2c0 0 .4 15.5.9 20.8.4 5.3 1.8 16.8 1.8 16.8s1.6 1.3 3.3.4c0 0 2.2-33 2.7-38.3.4-5.3.7-29 .7-29s-3.9-4.9-14.3 3.1z" />
      <path class="st27"
        d="M110 286.9s-6.3 6.9-2.7 30.1c.2 3.3 2.4 11.9 2.4 11.9s8.2 1.3 18-2.4c9.8-3.8 10-5.8 10-5.8s.4-29.2-1.8-36.7c-2.2-7.5-25.9 2.9-25.9 2.9z" />
      <path class="st30"
        d="M134.2 365.7s-.2 1.7 1.6 3 5.1 3.8 5.7 5.2c0 1.1-4.2-.1-6.1-1.1-1.9-1-3.7-3.3-3.7-3.3l.1 1s-.7 0-1.2-.6c-.6-.6.1-4 .1-4l3.5-.2zM117.6 373.4s-.2 1.7 1.6 3 5.1 3.8 5.7 5.2c0 1.1-4.2-.1-6.1-1.1-1.9-1-3.7-3.3-3.7-3.3l.1 1s-.7 0-1.2-.6c-.6-.6.1-4 .1-4l3.5-.2z" />
      <path class="st31"
        d="M133.6 243s6 .7 9.8 13.3c2.2 8.3 5.5 9 9.2 9.8 3.7.7 19.4 0 20.7 0 1.2 0 2.7 2.7 1 4.7-1.7 2-23.4 4-27.7 4-4.2 0-14-8-17.9-14.5-4-6.5-.3-17.8 4.9-17.3z" />
      <g>
        <path class="st31"
          d="M116.2 240.4s-12.3 8.8-13.5 11.7c-1.2 2.9-2.9 12 1.1 16.5 6.9 7.7 2.8 21 3.7 25 .9 3.9 10.3 4.4 16.8 3.1 6.5-1.3 12.6-4.6 12.3-12.2-.2-7.6 1.8-18.1 2.2-21.5.4-3.4 0-12-1.6-17.8-.3-1.2-4.4-2.5-4.4-2.5s-4.4-2.9-16.6-2.3z" />
        <path d="M126.9 238.7v.4c.1.9.6 3.2.7 4.2.1.9-1 2.5-3.5 2.5-2.5-.1-6.7-1.1-8.1-4.1.1-.5-.1-6-.4-8.8l11.3 5.8z"
          style="fill:#efa389" />
        <path class="st29"
          d="M133.8 222.1c-1.3-7.1-7-11.2-13.4-9.7 0 0-6.9.7-10 6.8-3.1 6.1 1.4 11.2 4.3 14.5 1.2 1.3 2.1 2.4 2.7 3 .2.2.4.5.6.7l.1.1c2 2 4.3 3.1 5.9 3.6 2.8.8 6.1.4 7.9-1.5 1.9-2 3.3-10.4 1.9-17.5z" />
      </g>
      <path
        d="m106.5 270.4 15.5 4.9 14.4-4c-.2.6-4 12.3-12.3 14.4-5.9 1.5-13-3.7-16.5-6.8-.2-2.2-.7-4.3-1.5-6.3l.4-2.2z"
        style="fill:#945dce" />
      <g>
        <path
          d="M107.2 255.8s-8.2-2-4.7 9.2c3.5 11.2 15.2 19.4 19.4 18.9 4.2-.5 21.4-18.7 21.4-20.9 0-2.2-2-3.7-4-3.2s-15.2 14.7-16.4 14.2c-1.2-.5-8.9-13.4-15.7-18.2z"
          style="fill:#ba86f2" />
        <path class="st35"
          d="M141 263.9s-2.3-.7-1.6-3.2c.7-2.5 5.2-4.4 5.9-4.5.7-.1 7.4 1.2 7.7 2.1.3.8-1.2 1.2-2.9.8-1.6-.4-4.1-.5-4.1-.5s1.8 1.9 1.6 2.7c-.1.8-1.1 2.5-2.5 3.2-1.4.7-3-.8-3-.8l-1.1.2z" />
      </g>
      <path class="st35"
        d="M171.2 266.4s5.4-4.6 5.7-3.8c.3.8-1.9 3.1-1.9 3.1s7.3-2.8 7.4-1.8c.1.9-3.8 3.9-4.9 4.6-1 .7-4.7 1.7-4.7 1.7s-2-2.7-1.6-3.8z" />
      <g class="st10">
        <path class="st8"
          d="M146.5 225.1c-1.8 1-3.2 3.6-3.2 5.6l.2 76.4c0 4.9 3.5 6.9 7.7 4.4l45.5-26.3c1.8-1 3.2-3.6 3.2-5.6l-.2-76.4c0-4.9-3.5-6.9-7.7-4.4l-45.5 26.3z" />
      </g>
      <g>
        <path class="st9"
          d="M153.5 252.8c-.5.3-1 1.1-1 1.7v4.1c0 .6.4.9 1 .6l37.1-21.4c.5-.3 1-1.1 1-1.7V232c0-.6-.4-.9-1-.5l-37.1 21.3zM153.5 261.6c-.5.3-1 1.1-1 1.7v4.1c0 .6.4.9 1 .5l37.1-21.4c.5-.3 1-1.1 1-1.7v-4.1c0-.6-.4-.9-1-.6l-37.1 21.5z" />
        <path class="st12"
          d="M168 268.2c-1.3.7-2.3 2.5-2.3 4v.9c0 1.5 1 2 2.3 1.3l12-6.9c1.3-.7 2.3-2.5 2.3-4v-.9c0-1.5-1-2-2.3-1.3l-12 6.9z" />
      </g>
    </g>
    <g>
      <path class="st6"
        d="M114.8 233.6c11-3 17.3-18.2 17.3-18.2l-3-3.2s-17.5-5.2-21.9 7.3c-4.6 12.5 7.6 14.1 7.6 14.1z" />
    </g>
    <path class="st6" d="M250.1 249.3s5.6 4.6 12.9 0c0 0-3.2 6.6-13.4 3.9l-6.3-2.7 6.8-1.2z" />
    <g>
      <path class="st20"
        d="M269.8 179.9c-.7-.1-1.5.7-1.7 1.8-.3 1.1.1 2.1.8 2.3.7.1 1.5-.7 1.7-1.8.2-1.2-.1-2.2-.8-2.3zM277.3 184c-.7-.1-1.5.7-1.7 1.8-.3 1.1.1 2.1.8 2.3.7.1 1.5-.7 1.7-1.8.2-1.2-.1-2.2-.8-2.3zM284.8 188.1c-.7-.1-1.5.7-1.7 1.8-.3 1.1.1 2.1.8 2.3.7.1 1.5-.7 1.7-1.8s-.1-2.2-.8-2.3zM292.4 192.1c-.7-.1-1.5.7-1.7 1.8-.3 1.1.1 2.1.8 2.3.7.1 1.5-.7 1.7-1.8.2-1.1-.1-2.1-.8-2.3zM299.9 196.2c-.7-.1-1.5.7-1.7 1.8s.1 2.1.8 2.3c.7.1 1.5-.7 1.7-1.8s-.1-2.2-.8-2.3zM307.4 200.3c-.7-.1-1.5.7-1.7 1.8s.1 2.1.8 2.3c.7.1 1.5-.7 1.7-1.8s-.1-2.2-.8-2.3z" />
    </g>
  </g>
</svg>
